<?xml version="1.0" encoding="utf-8"?>
<!-- Generator: Adobe Illustrator 18.1.1, SVG Export Plug-In . SVG Version: 6.00 Build 0)  -->
<svg version="1.1" id="Capa_1" xmlns="http://www.w3.org/2000/svg" xmlns:xlink="http://www.w3.org/1999/xlink" x="0px" y="0px"
	 viewBox="0 0 960 560" enable-background="new 0 0 960 560" xml:space="preserve">
<g>
	<path fill="#FFFFFF" d="M449.9,170.2c0-4.4,3.6-8,8-8h13.8v-13.8c0-4.4,3.6-8,8-8c4.4,0,8,3.6,8,8v13.8h13.9c4.4,0,8,3.6,8,8
		c0,4.4-3.6,8-8,8h-13.9v13.9c0,4.4-3.6,8-8,8c-4.4,0-8-3.6-8-8v-13.9h-13.8C453.5,178.2,449.9,174.6,449.9,170.2L449.9,170.2z
		 M642.5,441c0,4.4-3.6,8-8,8H325c-4.4,0-8-3.6-8-8s3.6-8,8-8h30.7V170.2c0-4.4,3.6-8,8-8h57.4c3.9-28.9,28.7-51.2,58.7-51.2
		c29.9,0,54.8,22.3,58.7,51.2h57.4c2.1,0,4.2,0.8,5.7,2.3s2.3,3.5,2.3,5.7V433h30.7C638.9,433,642.5,436.6,642.5,441L642.5,441z
		 M436.5,170.2c0,23.8,19.4,43.2,43.2,43.2c23.8,0,43.2-19.4,43.2-43.2c0-23.8-19.4-43.2-43.2-43.2
		C455.9,127,436.5,146.4,436.5,170.2L436.5,170.2z M471.7,375.4h-41.3V433h41.3L471.7,375.4z M529,375.4h-41.3l0,57.6H529V375.4z
		 M587.8,178.2h-49.4c-3.9,28.9-28.7,51.2-58.7,51.2c-29.9,0-54.8-22.3-58.7-51.2h-49.4V433h42.8v-65.6c0-4.4,3.6-8,8-8H537
		c4.4,0,8,3.6,8,8V433h42.8V178.2z M534.7,248.7H562c4.4,0,8,3.6,8,8v71.3c0,4.4-3.6,8-8,8h-27.3c-4.4,0-8-3.6-8-8v-71.3
		C526.7,252.3,530.3,248.7,534.7,248.7L534.7,248.7z M542.7,320.1H554v-55.3h-11.3V320.1z M501.4,256.7v71.3c0,4.4-3.6,8-8,8h-27.3
		c-4.4,0-8-3.6-8-8v-71.3c0-4.4,3.6-8,8-8h27.3C497.8,248.7,501.4,252.3,501.4,256.7L501.4,256.7z M485.4,264.7h-11.3v55.3h11.3
		V264.7z M432.8,256.7v71.3c0,4.4-3.6,8-8,8h-27.3c-4.4,0-8-3.6-8-8v-71.3c0-4.4,3.6-8,8-8h27.3
		C429.2,248.7,432.8,252.3,432.8,256.7L432.8,256.7z M416.8,264.7h-11.3v55.3h11.3V264.7z M416.8,264.7"/>
</g>
</svg>
