<?xml version="1.0" encoding="utf-8"?>
<!-- Generator: Adobe Illustrator 18.1.1, SVG Export Plug-In . SVG Version: 6.00 Build 0)  -->
<svg version="1.1" id="Capa_1" xmlns="http://www.w3.org/2000/svg" xmlns:xlink="http://www.w3.org/1999/xlink" x="0px" y="0px"
	 viewBox="0 0 960 560" enable-background="new 0 0 960 560" xml:space="preserve">
<g>
	<path fill="#FFFFFF" d="M484.7,205.8v-2.2h2.2c2.7,0,4.8-2.1,4.8-4.8c0-2.6-2.1-4.8-4.8-4.8h-2.2v-2.2c0-2.7-2.2-4.8-4.8-4.8
		c-2.7,0-4.8,2.1-4.8,4.8v2.2h-2.2c-2.6,0-4.8,2.1-4.8,4.8c0,2.7,2.2,4.8,4.8,4.8h2.2v2.2c0,2.6,2.1,4.8,4.8,4.8
		C482.5,210.6,484.7,208.5,484.7,205.8L484.7,205.8z M484.7,205.8"/>
	<path fill="#FFFFFF" d="M393.9,309.8c2.7,0,4.8-2.2,4.8-4.8v-6.9c0-2.7-2.1-4.8-4.8-4.8c-2.6,0-4.8,2.1-4.8,4.8v6.9
		C389.1,307.6,391.3,309.8,393.9,309.8L393.9,309.8z M393.9,309.8"/>
	<path fill="#FFFFFF" d="M413,309.8c2.6,0,4.8-2.2,4.8-4.8v-6.9c0-2.7-2.1-4.8-4.8-4.8c-2.7,0-4.8,2.1-4.8,4.8v6.9
		C408.2,307.6,410.3,309.8,413,309.8L413,309.8z M413,309.8"/>
	<path fill="#FFFFFF" d="M393.9,333.5c2.7,0,4.8-2.1,4.8-4.8v-6.9c0-2.6-2.1-4.8-4.8-4.8c-2.6,0-4.8,2.1-4.8,4.8v6.9
		C389.1,331.3,391.3,333.5,393.9,333.5L393.9,333.5z M393.9,333.5"/>
	<path fill="#FFFFFF" d="M413,333.5c2.6,0,4.8-2.1,4.8-4.8v-6.9c0-2.6-2.1-4.8-4.8-4.8c-2.7,0-4.8,2.1-4.8,4.8v6.9
		C408.2,331.3,410.3,333.5,413,333.5L413,333.5z M413,333.5"/>
	<path fill="#FFFFFF" d="M393.9,357.2c2.7,0,4.8-2.1,4.8-4.8v-6.9c0-2.7-2.1-4.8-4.8-4.8c-2.6,0-4.8,2.1-4.8,4.8v6.9
		C389.1,355,391.3,357.2,393.9,357.2L393.9,357.2z M393.9,357.2"/>
	<path fill="#FFFFFF" d="M413,357.2c2.6,0,4.8-2.1,4.8-4.8v-6.9c0-2.7-2.1-4.8-4.8-4.8c-2.7,0-4.8,2.1-4.8,4.8v6.9
		C408.2,355,410.3,357.2,413,357.2L413,357.2z M413,357.2"/>
	<path fill="#FFFFFF" d="M546.7,309.8c2.7,0,4.8-2.2,4.8-4.8v-6.9c0-2.7-2.1-4.8-4.8-4.8c-2.6,0-4.8,2.1-4.8,4.8v6.9
		C541.9,307.6,544.1,309.8,546.7,309.8L546.7,309.8z M546.7,309.8"/>
	<path fill="#FFFFFF" d="M565.8,309.8c2.7,0,4.8-2.2,4.8-4.8v-6.9c0-2.7-2.1-4.8-4.8-4.8c-2.6,0-4.8,2.1-4.8,4.8v6.9
		C561,307.6,563.1,309.8,565.8,309.8L565.8,309.8z M565.8,309.8"/>
	<path fill="#FFFFFF" d="M546.7,333.5c2.7,0,4.8-2.1,4.8-4.8v-6.9c0-2.6-2.1-4.8-4.8-4.8c-2.6,0-4.8,2.1-4.8,4.8v6.9
		C541.9,331.3,544.1,333.5,546.7,333.5L546.7,333.5z M546.7,333.5"/>
	<path fill="#FFFFFF" d="M565.8,333.5c2.7,0,4.8-2.1,4.8-4.8v-6.9c0-2.6-2.1-4.8-4.8-4.8c-2.6,0-4.8,2.1-4.8,4.8v6.9
		C561,331.3,563.1,333.5,565.8,333.5L565.8,333.5z M565.8,333.5"/>
	<path fill="#FFFFFF" d="M546.7,357.2c2.7,0,4.8-2.1,4.8-4.8v-6.9c0-2.7-2.1-4.8-4.8-4.8c-2.6,0-4.8,2.1-4.8,4.8v6.9
		C541.9,355,544.1,357.2,546.7,357.2L546.7,357.2z M546.7,357.2"/>
	<path fill="#FFFFFF" d="M565.8,357.2c2.7,0,4.8-2.1,4.8-4.8v-6.9c0-2.7-2.1-4.8-4.8-4.8c-2.6,0-4.8,2.1-4.8,4.8v6.9
		C561,355,563.1,357.2,565.8,357.2L565.8,357.2z M565.8,357.2"/>
	<path fill="#FFFFFF" d="M465.5,274.4v6.9c0,2.6,2.1,4.8,4.8,4.8c2.6,0,4.8-2.2,4.8-4.8v-6.9c0-2.7-2.2-4.8-4.8-4.8
		C467.7,269.6,465.5,271.7,465.5,274.4L465.5,274.4z M465.5,274.4"/>
	<path fill="#FFFFFF" d="M484.6,274.4v6.9c0,2.6,2.1,4.8,4.8,4.8c2.6,0,4.8-2.2,4.8-4.8v-6.9c0-2.7-2.2-4.8-4.8-4.8
		C486.7,269.6,484.6,271.7,484.6,274.4L484.6,274.4z M484.6,274.4"/>
	<path fill="#FFFFFF" d="M470.3,293.3c-2.7,0-4.8,2.1-4.8,4.8v6.9c0,2.6,2.1,4.8,4.8,4.8c2.6,0,4.8-2.2,4.8-4.8v-6.9
		C475.1,295.4,473,293.3,470.3,293.3L470.3,293.3z M470.3,293.3"/>
	<path fill="#FFFFFF" d="M489.4,293.3c-2.7,0-4.8,2.1-4.8,4.8v6.9c0,2.6,2.1,4.8,4.8,4.8c2.6,0,4.8-2.2,4.8-4.8v-6.9
		C494.2,295.4,492,293.3,489.4,293.3L489.4,293.3z M489.4,293.3"/>
	<path fill="#FFFFFF" d="M470.3,317c-2.7,0-4.8,2.1-4.8,4.8v6.9c0,2.7,2.1,4.8,4.8,4.8c2.6,0,4.8-2.1,4.8-4.8v-6.9
		C475.1,319.1,473,317,470.3,317L470.3,317z M470.3,317"/>
	<path fill="#FFFFFF" d="M489.4,317c-2.7,0-4.8,2.1-4.8,4.8v6.9c0,2.7,2.1,4.8,4.8,4.8c2.6,0,4.8-2.1,4.8-4.8v-6.9
		C494.2,319.1,492,317,489.4,317L489.4,317z M489.4,317"/>
	<path fill="#FFFFFF" d="M604.9,377.5h-10.1V275.6c0-2.7-2.1-4.8-4.8-4.8h-62.4v-34.4c0-2.6-2.1-4.8-4.8-4.8h-38.2v-7h16.2
		c2.7,0,4.8-2.1,4.8-4.8v-42c0-2.7-2.1-4.8-4.8-4.8h-42c-2.6,0-4.8,2.1-4.8,4.8v42c0,2.7,2.2,4.8,4.8,4.8h16.2v7h-38.2
		c-2.6,0-4.8,2.2-4.8,4.8v34.4h-62.4c-2.7,0-4.8,2.1-4.8,4.8v101.9h-10.1c-2.7,0-4.8,2.1-4.8,4.8c0,2.6,2.1,4.8,4.8,4.8h250.1
		c2.7,0,4.8-2.2,4.8-4.8C609.7,379.6,607.6,377.5,604.9,377.5L604.9,377.5z M518,241.2v136.3h-8v-21.1c0-2.7-2.1-4.8-4.8-4.8h-50.7
		c-2.7,0-4.8,2.1-4.8,4.8v21.1h-8V241.2H518z M500.4,377.5h-41.1v-16.3h41.1V377.5z M585.2,377.5h-57.6v-97.1h57.6V377.5z
		 M432.1,377.5h-57.6v-97.1h57.6V377.5z M463.6,182.6h32.4V215h-32.4V182.6z M463.6,182.6"/>
</g>
</svg>
