<?xml version="1.0" encoding="utf-8"?>
<!-- Generator: Adobe Illustrator 18.1.1, SVG Export Plug-In . SVG Version: 6.00 Build 0)  -->
<svg version="1.1" id="Capa_1" xmlns="http://www.w3.org/2000/svg" xmlns:xlink="http://www.w3.org/1999/xlink" x="0px" y="0px"
	 viewBox="0 0 960 560" enable-background="new 0 0 960 560" xml:space="preserve">
<path fill="#FFFFFF" d="M363.8,435.5"/>
<path fill="#FFFFFF" d="M648.2,447.8h-40.8v-12.3c0-28.2-7.5-49.9-22.3-64.6c-18.9-18.7-42.6-18.8-43.5-18.8h-30.1V333
	c19.2-8,31.3-21.2,38.7-32.7c11.5-17.9,14.2-35.2,14.3-35.9c0-0.3,0.1-0.6,0.1-0.9v-1.3c4.2-1,7.9-3.2,10.8-6.4
	c8.5-9.4,8-24.2,7.4-30.2c-0.5-4.5-2.5-8.3-5.9-11c-3.7-2.9-8.4-3.9-12.3-4.2v-51.3c0-18.9-7.8-31.5-23.9-38.6
	c-2.8-1.3-4.2-3-4.5-5.7c-0.3-2.5,0.6-4.7,0.6-4.7c1-2.7,0.1-5.7-2.3-7.2c-2.4-1.5-5.5-1.2-7.5,0.8c-8.6,8.7-17.1,8.8-35.7,8.4
	c-12.1-0.3-27.1-0.7-46.9,2.1c-27.3,3.9-39.4,20.8-44.8,34.3c-5.4,13.5-5,26-5,27.8v34.1c-3.8,0.3-8.6,1.3-12.3,4.2
	c-3.4,2.7-5.5,6.5-5.9,11c-0.6,5.9-1.1,20.8,7.4,30.2c2.9,3.3,6.7,5.4,10.9,6.5v1.3c0,0.3,0,0.6,0.1,0.9c0.1,0.7,2.7,18,14.3,35.9
	c7.4,11.5,19.5,24.7,38.7,32.7v19.2h-30c-1,0-24.7,0-43.6,18.8c-14.8,14.7-22.3,36.4-22.3,64.6v12.3H311c-3.3,0-6,2.7-6,6
	c0,3.3,2.7,6,6,6h337.2c3.3,0,6-2.7,6-6C654.2,450.5,651.5,447.8,648.2,447.8z M564.6,222.5c1.9,0.2,3.7,0.7,4.9,1.6
	c0.6,0.4,1.2,1.1,1.3,2.7c0.7,7-0.1,16.2-4.4,20.9c-0.6,0.6-1.2,1.2-1.9,1.6V222.5z M394.6,249.5c-0.7-0.5-1.4-1-2-1.7
	c-4.3-4.8-5.1-13.9-4.4-20.9c0.2-1.6,0.8-2.3,1.3-2.7c1.2-1,3.1-1.4,5-1.6V249.5z M442.6,447.8h-78.8v-12.3c0-50.1,26-65,41.9-69.5
	l0,0c0,0,7.7-2.9,21.8-1.9h15.1V447.8z M406.5,175.9c0-0.1-0.6-11.1,4.1-22.9c6.1-15.3,18-24.3,35.3-26.8c18.8-2.7,33.3-2.3,44.9-2
	c13.6,0.3,24.4,0.6,34.1-4.3c1.4,4.6,4.7,9,10.8,11.7c11.7,5.2,16.7,13.4,16.7,27.6v33.5c-10.6-0.9-18.4-4.4-23.4-10.3
	c-8.9-10.7-6.1-26.7-6.1-26.8c0.5-2.7-0.9-5.4-3.4-6.6c-2.5-1.2-5.5-0.4-7.2,1.7c-10.9,13.7-26.4,18.9-46.1,15.5
	c-15.5-2.7-27.9-10-28-10c-1.6-0.9-3.5-1.1-5.3-0.4c-1.7,0.7-3,2.1-3.6,3.9c-5.3,18.1-16.1,25.3-23,28.1v-11.4
	C406.5,176.2,406.5,176,406.5,175.9z M419.3,294.2c-9.4-14.4-12.2-28.7-12.6-31.1v-62.8c8.2-2.3,23.6-9.4,32.1-30.5
	c5.7,2.7,14.8,6.3,25.3,8.2c18.5,3.3,34.5,0.1,47.1-9.2c0.9,6.7,3.2,14.5,8.8,21.2c7.3,8.8,18.2,13.8,32.7,14.8v58.3
	c-0.4,2.5-3.3,16.7-12.6,31.1c-13.4,20.6-33.6,32-59.8,33.7H479C452.8,326.2,432.7,314.9,419.3,294.2z M499.5,337v21
	c0,0.1,0,0.1,0,0.2c0,11-8.9,19.9-19.9,19.9c-11,0-19.9-8.9-19.9-19.9V337c5.7,1.5,12,2.5,18.8,2.9c0.1,0,0.3,0,0.4,0h1.5
	c0.1,0,0.3,0,0.4,0C487.5,339.5,493.8,338.5,499.5,337z M504.2,447.8h-49.7v-69.9c5.9,7.4,14.9,12.1,25,12.1
	c9.9,0,18.8-4.5,24.6-11.6V447.8z M595.4,447.8h-79.2v-83.7h17.8c0,0,1.7-0.1,4.3,0h2.2v0.1c5.8,0.3,14.3,1.3,20.5,4.6c0,0,0,0,0,0
	c5.1,2.3,10.5,5.6,15.6,10.6c12.5,12.4,18.8,31.2,18.8,56.1V447.8z"/>
</svg>
