<?xml version="1.0" encoding="utf-8"?>
<!-- Generator: Adobe Illustrator 18.1.1, SVG Export Plug-In . SVG Version: 6.00 Build 0)  -->
<svg version="1.1" id="Capa_1" xmlns="http://www.w3.org/2000/svg" xmlns:xlink="http://www.w3.org/1999/xlink" x="0px" y="0px"
	 viewBox="0 0 960 560" enable-background="new 0 0 960 560" xml:space="preserve">
<path fill="#12B873" d="M290.4,258.8l14.7-55.8c4-15.2,17-22.8,38.9-22.9h31.6c1.4,0,2.6,0.5,3.6,1.6c1,1.1,1.4,2.4,1.4,3.8v73.2
	c0,1.5-0.5,2.8-1.6,3.8c-1.1,1-2.4,1.6-3.9,1.6h-11c-1.6,0-2.9-0.5-4-1.6c-1-1-1.6-2.4-1.6-4v-14.8h-41.5l-4,14.8
	c-0.4,1.6-1.3,2.9-2.7,3.9c-1.4,1-2.8,1.5-4.4,1.5h-11.6c-1.5,0-2.7-0.5-3.5-1.6c-0.6-0.7-0.8-1.5-0.8-2.4
	C290.2,259.8,290.3,259.3,290.4,258.8 M321.5,227.3h37.1v-30.6H342c-3.7,0-7,1.1-9.8,3.2c-2.8,2.1-4.7,5-5.6,8.6L321.5,227.3z"/>
<path fill="#12B873" d="M397.5,258.6v-72.9c0-1.5,0.5-2.9,1.6-4c1.1-1.1,2.4-1.7,3.9-1.7h11c1.5,0,2.8,0.6,3.9,1.7
	c1.1,1.1,1.6,2.5,1.6,4v28h12.6c3.4,0,6.5-0.9,9.1-2.8c2.6-1.9,5.1-4.9,7.4-9.1l9.1-16.2c2.1-3.7,4.9-5.6,8.4-5.7h13.5
	c1.5,0,2.4,0.5,2.7,1.6c0.1,0.3,0.1,0.5,0.1,0.8c0,0.9-0.3,2-1,3.2l-12.7,23c-1.8,3.4-3.9,6.1-6.2,8.3c-2.3,2.2-5.3,3.7-8.9,4.6
	c2.6,0.5,5.2,2.2,7.9,4.9c2.7,2.7,5.1,5.6,7.2,8.8l14.7,23.4c0.7,1.1,1,2.1,1,2.9c0,0.4-0.1,0.7-0.2,1c-0.4,1.1-1.3,1.6-2.9,1.6H468
	c-1.5,0-3.2-0.5-4.9-1.6c-1.8-1.1-3.1-2.4-4.1-3.9l-10.3-16.4c-2.5-4-4.9-7-7.4-9c-2.5-2-5.5-3-9-3h-12.6v28.5
	c0,1.5-0.5,2.8-1.6,3.8c-1.1,1-2.4,1.6-3.9,1.6h-11c-1.5,0-2.8-0.6-3.9-1.7C398,261.4,397.5,260.1,397.5,258.6"/>
<path fill="#12B873" d="M492.9,258.8v-73.1c0-1.5,0.5-2.8,1.6-3.9c1.1-1.1,2.4-1.6,3.9-1.6h10.9c1.6,0,2.9,0.5,4,1.6
	c1.1,1.1,1.6,2.4,1.6,3.9v73c0,1.5-0.6,2.8-1.7,3.9c-1.1,1.1-2.4,1.6-4,1.6h-10.9c-1.5,0-2.8-0.5-3.9-1.6
	C493.5,261.6,492.9,260.3,492.9,258.8"/>
<path fill="#0D78BD" d="M290.2,366.6v-73c0-1.5,0.5-2.8,1.6-3.9c1.1-1.1,2.4-1.6,4-1.6h10.9c1.5,0,2.8,0.5,3.9,1.6
	c1.1,1.1,1.6,2.4,1.6,3.9V320h40.3v-26.4c0-1.5,0.5-2.8,1.6-3.9c1.1-1.1,2.4-1.6,3.9-1.6h10.9c1.6,0,2.9,0.5,4,1.6
	c1.1,1.1,1.6,2.4,1.6,3.9v73c0,1.5-0.6,2.8-1.7,3.9c-1.1,1.1-2.4,1.6-4,1.6h-10.9c-1.5,0-2.8-0.5-3.9-1.6c-1.1-1-1.6-2.3-1.6-3.8
	v-30.1h-40.3v30.1c0,1.5-0.5,2.8-1.6,3.8c-1.1,1-2.4,1.6-3.9,1.6h-10.9c-1.5,0-2.9-0.5-4-1.6C290.8,369.4,290.2,368.1,290.2,366.6"
	/>
<path fill="#0D78BD" d="M390.3,338.9v-45.3c0-1.5,0.5-2.8,1.6-3.9c1.1-1.1,2.4-1.6,4-1.6h11c1.5,0,2.8,0.5,3.9,1.6
	c1.1,1.1,1.6,2.4,1.6,3.9v45.3c0,5.7,1.3,10,3.8,12.8c2.5,2.8,6.4,4.2,11.7,4.2h9.4c5.3,0,9.2-1.4,11.7-4.2
	c2.5-2.8,3.8-7.1,3.8-12.8v-45.3c0-1.5,0.5-2.8,1.6-3.9c1.1-1.1,2.4-1.6,3.9-1.6h10.9c1.6,0,2.9,0.5,4,1.6c1.1,1.1,1.6,2.4,1.6,3.9
	v45.3c0,10.7-3.1,19-9.4,24.9c-6.3,5.9-15.5,8.8-27.6,8.8h-10.6c-12.1,0-21.3-2.9-27.5-8.8C393.5,357.9,390.3,349.6,390.3,338.9"/>
<path fill="#0D78BD" d="M490.4,366.6v-73c0-1.5,0.5-2.8,1.6-3.9c1.1-1.1,2.4-1.6,3.9-1.6h17.4c1.4,0,2.8,0.5,4.4,1.6
	c1.5,1.1,2.8,2.4,3.8,3.9l35.8,54.5v-54.6c0-1.5,0.5-2.8,1.5-3.9c1-1.1,2.3-1.6,3.7-1.6h9.7c1.5,0,2.7,0.5,3.7,1.6
	c1,1.1,1.5,2.4,1.5,4v73c0,1.5-0.5,2.8-1.6,3.9c-1.1,1.1-2.3,1.6-3.8,1.6h-19.2c-1.5,0-3-0.5-4.6-1.6c-1.6-1.1-2.8-2.4-3.8-3.9
	l-32-50.3v50.3c0,1.5-0.6,2.8-1.7,3.9c-1.1,1.1-2.5,1.6-4,1.6h-10.7c-1.6,0-2.9-0.5-4.1-1.6C490.9,369.4,490.4,368.1,490.4,366.6"/>
<path fill="#0D78BD" d="M587.2,299.1v-5.5c0-1.6,0.5-2.9,1.6-4c1.1-1.1,2.4-1.6,4-1.6h74.4c1.6,0,2.9,0.5,4,1.6
	c1.1,1.1,1.6,2.4,1.6,4v5.5c0,1.6-0.5,2.9-1.6,4c-1.1,1-2.4,1.6-4,1.6H641v62.1c0,1.5-0.5,2.8-1.6,3.8c-1.1,1-2.4,1.6-3.9,1.6h-11.1
	c-1.5,0-2.8-0.5-3.9-1.6c-1.1-1-1.6-2.3-1.6-3.8v-62.1h-26.1c-1.6,0-2.9-0.5-4-1.6C587.8,302,587.2,300.7,587.2,299.1"/>
<path fill="#0D78BD" d="M682.3,366.5v-73c0-1.5,0.5-2.8,1.6-3.9c1.1-1.1,2.4-1.6,3.9-1.6h67.6c1.5,0,2.8,0.5,3.9,1.6
	c1.1,1.1,1.6,2.4,1.6,3.9v5.5c0,1.5-0.5,2.8-1.6,3.9c-1.1,1.1-2.4,1.6-3.9,1.6h-51.1v17h44c1.5,0,2.8,0.5,3.9,1.6
	c1.1,1.1,1.6,2.4,1.6,3.9v5.5c0,1.5-0.5,2.8-1.6,3.9c-1.1,1.1-2.4,1.6-3.9,1.6h-44v17.3h50.9c1.5,0,2.8,0.5,3.8,1.6
	c1,1.1,1.6,2.3,1.6,3.9v5.6c0,1.5-0.5,2.8-1.6,3.9c-1.1,1.1-2.4,1.6-3.9,1.6h-67.3c-1.5,0-2.8-0.5-3.9-1.6
	C682.8,369.4,682.3,368.1,682.3,366.5"/>
<path fill="#0D78BD" d="M771.7,366.6v-73c0-1.5,0.5-2.8,1.6-3.9c1.1-1.1,2.3-1.6,3.9-1.6h48.4c8.9,0,16.3,2.4,22,7.2
	c5.7,4.8,8.6,11.3,8.6,19.5c0,11.4-7.4,18.5-22.1,21.4c2.3,0.9,4.5,2.4,6.5,4.5c2,2.1,4.3,5.1,6.9,9.1l10.7,16.9
	c0.7,1.1,1,2.1,1,2.9c0,0.4-0.1,0.7-0.2,1c-0.4,1.1-1.3,1.6-2.9,1.6h-14.1c-1.5,0-3.2-0.5-4.9-1.6c-1.8-1.1-3.1-2.4-4-3.9L823,351
	c-4.1-6.4-9-9.6-14.9-9.6h-14.3v25.2c0,1.5-0.5,2.8-1.6,3.9c-1.1,1.1-2.4,1.6-3.9,1.6h-11c-1.5,0-2.8-0.5-3.9-1.6
	C772.2,369.4,771.7,368.1,771.7,366.6 M793.8,324.8h25c4,0,7.5-0.8,10.6-2.4c3.1-1.6,4.6-4.2,4.6-7.7s-1.5-6.1-4.6-7.7
	c-3.1-1.6-6.6-2.4-10.6-2.4h-25V324.8z"/>
<path fill="#12B873" d="M265.8,290.9L245.7,230c-2.1-6.3-4.9-12.1-8.5-17.4l-3.1-4.6L224,228.2l0.7,1.4c0.9,1.9,1.7,4,2.5,6.5
	l20.1,60.9c4.4,13.2,3.4,27.3-2.9,39.7c-6.3,12.5-17,21.7-30.1,26.1c-5.3,1.7-10.8,2.6-16.3,2.6c-8.1,0-16-1.9-23.5-5.6
	c-3.3-1.7-6.4-3.7-9.3-6l-3.1-2.5l-9,17.8l2.2,1.6c3.3,2.4,6.8,4.6,10.5,6.4c10.2,5.1,21,7.7,32.2,7.7c7.6,0,15.1-1.2,22.4-3.6
	c18-6,32.7-18.7,41.3-35.8C270.4,328.4,271.8,309,265.8,290.9"/>
<path fill="#0D78BD" d="M222.1,197.9c-5.3-5.1-11.3-9.4-17.9-12.7c-10.2-5.1-21-7.7-32.2-7.7c-7.6,0-15.1,1.2-22.4,3.6
	c-18.1,6-32.8,18.7-41.4,35.8c-8.6,17.1-10.1,36.5-4.1,54.6l20.1,60.9c3.2,9.6,8.2,18.2,15,25.6l3.2,3.5l9.4-18.7l-1.2-1.6
	c-3.4-4.5-6-9.5-7.8-14.9l-20.1-60.9c-4.3-13.1-3.3-27.2,3-39.7c6.3-12.4,16.9-21.7,30.1-26.1l0,0c5.3-1.8,10.8-2.6,16.3-2.6
	c8.1,0,16,1.9,23.4,5.6c6.1,3,11.4,7.1,15.8,12.1l3.2,3.6l9.4-18.7L222.1,197.9z"/>
</svg>
