<?xml version="1.0" encoding="utf-8"?>
<!-- Generator: Adobe Illustrator 16.0.0, SVG Export Plug-In . SVG Version: 6.00 Build 0)  -->
<!DOCTYPE svg PUBLIC "-//W3C//DTD SVG 1.1//EN" "http://www.w3.org/Graphics/SVG/1.1/DTD/svg11.dtd">
<svg version="1.1" id="Layer_1" xmlns="http://www.w3.org/2000/svg" xmlns:xlink="http://www.w3.org/1999/xlink" x="0px" y="0px"
	 width="22.531px" height="27.639px" viewBox="0 0 22.531 27.639" enable-background="new 0 0 22.531 27.639" xml:space="preserve">
<path fill="#FFFFFF" d="M22.043,15.12L19.363,7c-0.279-0.84-0.653-1.613-1.133-2.32l-0.414-0.613L16.471,6.76l0.093,0.187
	c0.12,0.253,0.227,0.534,0.333,0.867l2.68,8.12c0.588,1.761,0.454,3.64-0.386,5.294c-0.841,1.666-2.267,2.893-4.014,3.479
	c-0.706,0.227-1.44,0.347-2.173,0.347c-1.08,0-2.134-0.254-3.134-0.746c-0.44-0.228-0.854-0.494-1.24-0.801l-0.414-0.333l-1.2,2.373
	L7.31,25.76c0.44,0.319,0.907,0.613,1.4,0.854c1.36,0.68,2.8,1.025,4.294,1.025c1.013,0,2.013-0.159,2.986-0.479
	c2.4-0.8,4.359-2.493,5.507-4.772C22.656,20.12,22.844,17.534,22.043,15.12"/>
<path fill="#FFFFFF" d="M16.217,2.72C15.51,2.04,14.71,1.466,13.83,1.026C12.471,0.347,11.03,0,9.537,0
	C8.523,0,7.523,0.16,6.55,0.48c-2.414,0.8-4.374,2.493-5.52,4.773c-1.147,2.28-1.347,4.866-0.547,7.28l2.68,8.12
	c0.427,1.28,1.093,2.427,2,3.414l0.427,0.467l1.253-2.494l-0.16-0.213c-0.454-0.6-0.8-1.267-1.04-1.986l-2.68-8.121
	c-0.573-1.747-0.44-3.626,0.4-5.293c0.84-1.653,2.253-2.893,4.014-3.48l0,0C8.083,2.707,8.817,2.6,9.55,2.6
	c1.08,0,2.133,0.253,3.12,0.747c0.813,0.4,1.521,0.946,2.107,1.613l0.426,0.48l1.254-2.494L16.217,2.72z"/>
</svg>
